<?xml version="1.0" encoding="utf-8"?>
<!-- Generator: Adobe Illustrator 25.4.1, SVG Export Plug-In . SVG Version: 6.00 Build 0)  -->
<svg version="1.1" id="Capa_3" xmlns="http://www.w3.org/2000/svg" xmlns:xlink="http://www.w3.org/1999/xlink" x="0px" y="0px"
	 viewBox="0 0 230 40" style="enable-background:new 0 0 230 40;" xml:space="preserve">
<style type="text/css">
	.st0{fill-rule:evenodd;clip-rule:evenodd;fill:#FFFFFF;}
	.st1{fill:#FFFFFF;}
	.st2{fill:#FFFFFF;stroke:#E20613;stroke-width:0.2;}
	.st3{fill:#1D1D1B;}
	.st4{fill:url(#SVGID_1_);stroke:#FFFFFF;stroke-width:0.2;}
	.st5{fill:url(#SVGID_00000034057030853104466080000016999978819858260650_);stroke:#FFFFFF;stroke-width:0.2;}
	.st6{fill:url(#SVGID_00000150068252720140367930000008637970525724648346_);stroke:#1D1D1B;stroke-width:0.2;}
	.st7{fill:url(#SVGID_00000145757841919644787160000014276575425597289115_);}
	.st8{fill:url(#SVGID_00000127043594641834107460000002613158038446386364_);}
	.st9{fill:url(#SVGID_00000059295044566850254540000013359564887109372297_);}
	.st10{fill:url(#SVGID_00000144314689052808297680000004970705404267682485_);}
	.st11{fill:url(#SVGID_00000157304781437961072300000004073375862774186142_);}
	.st12{fill:url(#SVGID_00000124146408589537365550000017506912206948281005_);}
	.st13{fill:url(#SVGID_00000141421825437766605750000015993956702675413129_);}
	.st14{fill:url(#SVGID_00000131344657243968885700000005880830975837892504_);}
	.st15{fill:url(#SVGID_00000095318258179768279500000001805989547084647322_);}
	.st16{fill:url(#SVGID_00000024690475897300637690000009083055557658086540_);}
	.st17{fill:url(#SVGID_00000168819644402012013530000000024515722794817930_);}
	.st18{fill:url(#SVGID_00000170263240705830556950000010518875393303784867_);}
	.st19{fill:url(#SVGID_00000034068519858739000930000012896169923668852134_);}
	.st20{fill:url(#SVGID_00000081611601446712525290000004471317861326129820_);stroke:#FFFFFF;stroke-width:0.2;}
	.st21{fill:url(#SVGID_00000005976728532264308320000015943437607239984525_);stroke:#FFFFFF;stroke-width:0.2;}
	.st22{fill:url(#SVGID_00000074408031329721116490000014512183054977488050_);stroke:#868686;stroke-width:0.4;}
	.st23{fill:url(#SVGID_00000148662265054160450950000005668971023844295580_);stroke:#868686;stroke-width:0.4;}
	.st24{fill:#FFFFFF;stroke:#636362;stroke-width:0.4;}
	.st25{fill:url(#SVGID_00000026140562303359252370000010717467203120487830_);stroke:#FFFFFF;stroke-width:0.2;}
	.st26{fill:url(#SVGID_00000061433841451184916210000002605730637634442150_);stroke:#FFFFFF;stroke-width:0.2;}
	.st27{fill:url(#SVGID_00000096020807768834025020000005273110157907176843_);stroke:#FFFFFF;stroke-width:0.2;}
	.st28{fill:#868686;stroke:#4C4C4B;stroke-width:0.2;}
	.st29{fill:url(#SVGID_00000015350916520984801800000000797279352031967677_);stroke:#636362;stroke-width:0.4;}
	.st30{fill:url(#SVGID_00000152953202060195377610000003192723713582505889_);stroke:#FFFFFF;stroke-width:0.2;}
	.st31{fill:url(#SVGID_00000029752175416425246240000011683613625472360382_);stroke:#FFFFFF;stroke-width:0.2;}
	.st32{fill:url(#SVGID_00000155141877728837162230000002453146275659203732_);stroke:#636362;stroke-width:0.4;}
	.st33{fill:#E6E6E6;}
	.st34{fill:#BC1D1D;}
	.st35{fill:#F29100;}
</style>
<path class="st0" d="M7.8,27.1C6.6,25.8,6,23.9,6,21.5v-9.3h3.5v9.1c0,3,1.1,4.5,3.4,4.5c1.1,0,1.9-0.4,2.5-1.1s0.9-1.8,0.9-3.4
	v-9.1h3.4v9.3c0,2.4-0.6,4.3-1.8,5.6s-2.9,2-5,2C10.6,29.1,9,28.5,7.8,27.1 M31.5,25c0.6-0.6,0.8-1.5,0.8-2.6c0-1.1-0.3-1.9-0.8-2.6
	c-0.6-0.6-1.3-1-2.1-1c-0.9,0-1.6,0.3-2.1,1c-0.6,0.6-0.8,1.5-0.8,2.6c0,1.1,0.3,1.9,0.8,2.6c0.6,0.6,1.3,1,2.1,1
	C30.3,26,31,25.7,31.5,25 M32.9,16.7c0.9,0.5,1.6,1.3,2.1,2.3s0.8,2.1,0.8,3.4c0,1.3-0.3,2.5-0.8,3.4c-0.5,1-1.2,1.8-2.1,2.3
	C32,28.6,31,28.9,30,28.9c-1.5,0-2.6-0.5-3.5-1.5v5.9h-3.4V16.1h3.2v1.5c0.8-1.1,2-1.7,3.6-1.7C31.1,15.9,32,16.2,32.9,16.7
	 M46.1,24.3C46.7,23.7,47,23,47,22s-0.3-1.7-0.9-2.3c-0.6-0.6-1.3-0.9-2.2-0.9s-1.6,0.3-2.2,0.9c-0.6,0.6-0.9,1.3-0.9,2.3
	c0,0.9,0.3,1.7,0.9,2.3s1.3,0.9,2.2,0.9S45.5,24.9,46.1,24.3z M50.3,16.1v10.6c0,2.3-0.6,4.1-1.7,5.2c-1.1,1.1-2.7,1.7-4.9,1.7
	c-1.1,0-2.2-0.1-3.2-0.5c-1-0.3-1.8-0.7-2.5-1.3l1.3-2.7c0.5,0.4,1.1,0.8,1.9,1.1c0.7,0.3,1.5,0.4,2.2,0.4c1.2,0,2-0.3,2.6-0.9
	s0.8-1.5,0.8-2.6v-0.5c-0.9,1.1-2.1,1.6-3.7,1.6c-1.1,0-2-0.3-2.9-0.8s-1.6-1.2-2.1-2.2c-0.5-0.9-0.8-2-0.8-3.2
	c0-1.2,0.3-2.3,0.8-3.2c0.5-0.9,1.2-1.7,2.1-2.2s1.9-0.8,2.9-0.8c1.7,0,3,0.6,3.8,1.8v-1.5H50.3L50.3,16.1z M58.5,16.4
	c0.7-0.3,1.5-0.5,2.4-0.5v3.4c-0.4,0-0.6,0-0.8,0c-1,0-1.7,0.3-2.3,0.9c-0.5,0.6-0.8,1.5-0.8,2.7v6h-3.4V16.1h3.2v1.7
	C57.3,17.2,57.9,16.7,58.5,16.4 M69.1,26.1c0.4-0.3,0.8-0.7,0.9-1.3v-1.3h-2.3c-1.4,0-2.1,0.5-2.1,1.5c0,0.5,0.2,0.8,0.5,1.1
	c0.3,0.3,0.8,0.4,1.4,0.4C68.2,26.5,68.7,26.4,69.1,26.1 M72,17.3c1,0.9,1.4,2.4,1.4,4.3v7.3h-3.1v-1.7c-0.6,1.2-1.8,1.8-3.5,1.8
	c-0.9,0-1.7-0.2-2.3-0.5c-0.7-0.3-1.2-0.8-1.5-1.4s-0.5-1.2-0.5-2c0-1.2,0.4-2.1,1.2-2.8c0.8-0.7,2.1-1,3.8-1h2.7
	c0-0.8-0.2-1.4-0.7-1.9c-0.4-0.4-1.1-0.7-2-0.7c-0.6,0-1.2,0.1-1.8,0.3c-0.6,0.2-1.1,0.5-1.5,0.9L63,17.3c0.6-0.5,1.4-0.9,2.3-1.1
	c0.9-0.3,1.8-0.4,2.7-0.4C69.6,15.9,71,16.4,72,17.3 M84.4,25c0.6-0.6,0.8-1.5,0.8-2.6c0-1.1-0.3-1.9-0.8-2.6c-0.6-0.6-1.3-1-2.1-1
	c-0.9,0-1.6,0.3-2.1,1c-0.6,0.6-0.8,1.5-0.8,2.6c0,1.1,0.3,1.9,0.8,2.6c0.6,0.6,1.3,1,2.1,1C83.2,26,83.9,25.7,84.4,25z M88.6,11.3
	v17.6h-3.2v-1.5c-0.8,1.1-2,1.7-3.6,1.7c-1.1,0-2.1-0.3-3-0.8S77.2,27,76.7,26s-0.8-2.1-0.8-3.5c0-1.3,0.3-2.5,0.8-3.5
	s1.2-1.8,2.1-2.3s1.9-0.8,3-0.8c1.5,0,2.6,0.5,3.5,1.5v-6.2L88.6,11.3L88.6,11.3z M95.4,19.4c-0.5,0.5-0.8,1.1-0.9,1.9h5.7
	c-0.1-0.8-0.4-1.4-0.9-1.9s-1.2-0.7-1.9-0.7C96.6,18.7,95.9,18.9,95.4,19.4 M103.3,23.5h-8.8c0.2,0.8,0.5,1.4,1.1,1.9
	s1.3,0.7,2.2,0.7c0.6,0,1.1-0.1,1.6-0.3c0.5-0.2,0.9-0.5,1.3-0.9l1.8,2.1c-1.1,1.4-2.7,2.1-4.8,2.1c-1.3,0-2.5-0.3-3.5-0.8
	c-1-0.6-1.8-1.3-2.3-2.3s-0.8-2.1-0.8-3.4c0-1.2,0.3-2.4,0.8-3.4s1.3-1.8,2.2-2.3s2-0.8,3.2-0.8c1.1,0,2.2,0.3,3.1,0.8
	s1.6,1.3,2.2,2.3c0.5,1,0.8,2.2,0.8,3.5C103.4,22.6,103.3,22.9,103.3,23.5"/>
<g>
	<path class="st1" d="M189.7,17.9l-1.2,0.7c-1-1.4-2.4-2.1-4.2-2.1c-1.4,0-2.6,0.5-3.5,1.4c-0.9,0.9-1.4,2-1.4,3.3
		c0,0.9,0.2,1.7,0.6,2.4c0.4,0.7,1,1.3,1.8,1.7c0.8,0.4,1.6,0.6,2.5,0.6c1.7,0,3.1-0.7,4.2-2.1l1.2,0.8c-0.6,0.8-1.3,1.5-2.2,2
		c-0.9,0.5-2,0.7-3.2,0.7c-1.8,0-3.4-0.6-4.6-1.8c-1.3-0.9-1.9-2.4-1.9-4.1c0-1.1,0.3-2.2,0.9-3.2c0.6-1,1.4-1.7,2.3-2.3
		c1-0.4,2.1-0.7,3.3-0.7c0.8,0,1.5,0.1,2.2,0.4c0.7,0.2,1.3,0.5,1.8,0.9C188.9,16.9,189.3,17.3,189.7,17.9z"/>
	<path class="st1" d="M204.2,15.5v11.7h-1.5v-2c-0.6,0.8-1.3,1.3-2.1,1.7s-1.6,0.6-2.6,0.6c-1.7,0-3.1-0.6-4.2-1.8
		c-1.2-1.2-1.8-2.7-1.8-4.4c0-1.7,0.6-3.1,1.8-4.3c1.2-1.2,2.6-1.8,4.3-1.8c1,0,1.8,0.2,2.6,0.6c0.8,0.4,1.5,1,2,1.8v-2.1H204.2z
		 M198.2,16.7c-0.8,0-1.6,0.2-2.3,0.6c-0.7,0.4-1.3,1-1.7,1.7c-0.4,0.7-0.6,1.5-0.6,2.4c0,0.8,0.2,1.6,0.6,2.4
		c0.4,0.8,1,1.3,1.7,1.8c0.7,0.4,1.5,0.6,2.3,0.6s1.6-0.2,2.3-0.6c0.7-0.4,1.3-1,1.7-1.7c0.4-0.8,0.6-1.6,0.6-2.5
		c0-1.4-0.4-2.5-1.3-3.4C200.6,17.1,199.5,16.7,198.2,16.7z"/>
	<path class="st1" d="M207,15.5h1.5v1.7c0.5-0.7,0.9-1.2,1.5-1.5c0.6-0.3,1-0.5,1.6-0.5c0.4,0,0.9,0.1,1.3,0.4l-0.8,1.3
		c-0.3-0.1-0.6-0.2-0.8-0.2c-0.5,0-1,0.2-1.5,0.6c-0.5,0.4-0.8,1.1-1.1,1.9c-0.2,0.7-0.3,2-0.3,4v4h-1.5V15.5H207z"/>
</g>
<g>
	<path class="st2" d="M165.1,19.9c1.9,0.7,3.2,3.9,3.8,4.8c0.2,0.3,0.5,0.7,0.9,1.2l0.8-0.2c0,0-0.3-0.2-0.3-0.3s0.1-0.3,0-0.5
		c-0.1-0.2-0.7-1.4-1-2.2c-0.3-0.8-0.8-2.5-1.7-3.5c-0.2-0.2-0.3-0.3-0.5-0.5c0,0.2-0.2,0.7-0.2,0.7c0,0.1-0.2,0.1-0.1-0.1
		c0,0,0-0.1,0.1-0.3c0-0.2,0.1-0.3,0.1-0.4l-0.1-0.1c0,0.2-0.2,0.7-0.2,0.8c0,0.1-0.2,0.1-0.1-0.1c0,0,0-0.1,0.1-0.3
		c0-0.2,0.1-0.3,0.1-0.4l-0.1-0.1c0,0.2-0.2,0.7-0.2,0.8c0,0.1-0.2,0.1-0.1-0.1c0,0,0-0.1,0.1-0.3c0-0.2,0.1-0.4,0.1-0.5l-0.1-0.1
		c0,0.2-0.2,0.7-0.2,0.8s-0.2,0.1-0.1-0.1c0,0,0-0.1,0.1-0.3c0-0.2,0.1-0.4,0.1-0.5l-0.1-0.1c0,0.2-0.2,0.7-0.2,0.8
		c0,0.1-0.2,0.1-0.1-0.1c0,0,0-0.1,0.1-0.3c0-0.2,0.1-0.4,0.1-0.5l-0.1-0.1c0,0.2-0.2,0.7-0.2,0.8s-0.2,0.1-0.1-0.1
		c0,0,0-0.1,0.1-0.3c0-0.2,0.1-0.4,0.1-0.5l-0.1-0.1c0,0.2-0.2,0.7-0.2,0.8c0,0.1-0.2,0.1-0.1-0.1c0,0,0-0.1,0.1-0.3
		c0-0.2,0.1-0.4,0.1-0.5c-0.4-0.4-0.8-0.7-1-0.9c0,0,0,0.6-0.2,0.9c-0.2,0.3-0.4,0.6-0.4,0.8c-0.1,0.1-0.2,0.5,0.3,1.5
		C164.6,19.7,164.8,19.8,165.1,19.9z"/>
	<path class="st2" d="M118,19.2c4.3,0,8.3,3.1,9.6,8.9c0,0.1-0.1,0.1-0.1,0.2c-0.4,0.3-0.7,0.5-0.7,1.3c-1.2,0-2.1,0-2.1,0
		s-0.6-0.2-0.7-0.6s-0.6-2.8-1.3-4.1c-0.7-1.3-2.5-3.4-5.4-3.4c-2.8,0-4.6,2.2-6.5,5c-0.5,0.8-1,1.2-1,1.4c-0.1,0.2-0.2,0.2-0.2,0.2
		c-0.1,0-0.3-0.2-0.2-0.4c0.1-0.3,0.6-1.7,0.7-2.1c0.2-0.4,0.5-1.8,0.5-2.3s0.5-1.7,0.8-2.1c0.3-0.3,0.4-0.4,0.8-0.6
		C112.4,20.2,115,19.2,118,19.2z"/>
	<path class="st2" d="M115.6,19.4c1.5-0.8,3.7-1.3,5.1-1.5c1.6-0.3,3.4-0.5,6-0.5c0.3-0.2,0.6-0.6,0.8-0.9c0.2-0.3,0-0.7-0.2-1.2
		c0,0-1.4,0.1-2.5,0.2c-4.3,0.4-6.5,1-8.4,1.8c-1.9,0.8-3.3,2-3.8,2.4c-0.3,0.3-0.4,0.5-0.5,0.6C112.7,20.1,114,19.6,115.6,19.4z"/>
	<path class="st2" d="M164.1,17.8c0.5-0.7,0.4-0.8,0.6-1.4c0,0-1-1.1-1.2-1.4c-0.1,0.3-0.2,0.5-0.5,0.7c-0.2,0.2-0.5,0.1-0.7,0
		c-0.2,0-0.7-0.5-1.3-1c-0.6-0.5-3-2.7-3.5-3.1c-0.5-0.4-0.4-0.8-0.4-0.9c0-0.1,0.1-0.2-0.1-0.3c-4.4-2.4-10-2.8-14.2-2.7
		c-4.2,0.1-6.6,0.4-10.1,1.5c-0.2,0.1-0.3,0.1-0.5,0.5c-0.2,0.4-1.7,2.8-1.9,3.3c-0.2,0.4-1.2,2-1.5,2.4l0,0l0.4,0.2
		c0.4-0.6,1.5-2.5,1.9-3.2c0.5-0.8,1.6-1.9,4.1-2.4c2.6-0.5,7.2-0.4,9.3-0.4c2.2,0,4.4,0.1,7.8,1c3.3,0.9,6.4,3.3,7.3,4.1
		c0.9,0.8,3,2.7,4.7,4.8C164.1,19.3,163.7,18.5,164.1,17.8z"/>
	<path class="st2" d="M168.9,24.7c-0.6-0.8-2-4-3.8-4.8c-0.3-0.1-0.6-0.2-0.8-0.3l0,0c-0.3-0.1-1.9-0.6-3.2-0.7
		c-2.4-0.1-4.6,0.2-6,1.3c-1.4,1-3.6,2.9-4,8l0,0c0,0.1,0,0.3,0.1,0.4c0.1,0.1,0.3,0.5,0,0.8c-0.1,0.1,0,0.1,0,0.1
		c0.4,0,0.7,0.2,1.2,0c0.5-0.2,0.6-0.9,0.7-1.4c0.1-0.5,0.4-2,0.8-2.8c0.4-0.8,2.2-3.3,5.7-3.3c3.9,0,5.3,2.7,6.2,4.2
		c0.9,1.6,2.4,2.7,5.6,2.6c0.6,0,0.6,0,0.6,0C171.1,27.6,169.6,25.5,168.9,24.7z"/>
	<path class="st2" d="M164.2,19.5c-1.7-2-3.7-3.9-4.6-4.7c-0.9-0.8-4-3.2-7.3-4.1c-3.3-0.9-5.6-1-7.7-1l-0.2,18.5c0,0,5.4,0,6.6,0
		c0.4-5,2.7-7,4-8c1.4-1.1,3.7-1.4,6-1.3c1.3,0,2.9,0.6,3.2,0.7C164.3,19.6,164.2,19.5,164.2,19.5z M157.2,15.8
		c-0.2,0.4-0.4,1.1-1.9,1.2c-1.5,0-8.9-0.2-9.4-0.2S145,16.5,145,16v-4.8c0-0.5,0.4-0.9,1-0.9c0.8,0,4,0.1,6.9,1.2s3.6,2.1,4,2.7
		C157.3,14.7,157.4,15.4,157.2,15.8z"/>
	<path class="st2" d="M129.2,15.8l-0.4-0.3c0,0-0.3-0.1-0.6-0.3c0,0-0.3,0-0.7,0.1c0.2,0.3,0.3,0.8,0.3,1c0,0.2-0.4,0.7-0.9,1.2
		c-0.3,0-2.9,0.1-5.7,0.5c-2.3,0.3-4.2,1.1-4.9,1.3c0.5-0.1,1.1-0.1,1.7-0.1c4.3,0,8.3,3.1,9.6,8.9h0.5c0,0-0.1-7.3-0.1-10.6
		C128,17.5,128.8,16.3,129.2,15.8z"/>
	<path class="st3" d="M165.7,17.4c0,0,1.3,1.2,1.5,1.4c0.2,0.2,0.1,0.6,0.1,0.6l-0.5,0.2l-1.1-0.5l-0.3-1L165.7,17.4z"/>
	<polygon class="st3" points="164.6,16.4 164.9,16.6 164.8,17.6 164.3,18.3 164.5,19.2 164.8,20 164,20 163.6,19.3 163.5,18.2 
		163.6,17.1 	"/>
	<path class="st3" d="M124.8,29.3c0,0-0.7,1.2-2.4,1.7c-1.6,0.5-7.5-0.1-7.5-0.1l-2.5-2.9c0,0-0.8-0.1-1,0s-0.3,0.4-0.4,0.5
		s-0.1,0.2-0.2,0.2s-0.2-0.3-0.2-0.4s-0.1-0.4-0.2-0.5s-0.6-0.2-0.7-0.2s0-0.3,0-0.3l0.5-0.7l1.9-2.9l1.8-2.1l4.1-1.2l3.3,0.9
		l2.3,3.1l1.4,3.4L124.8,29.3z"/>
	<path class="st3" d="M152.5,29.1c0,0,0.5,0.7,0.7,1c0.2,0.2,0.5,0.6,1.1,0.8c0.5,0.2,10.4-1.3,10.4-1.3s1.1,0,1.3,0
		s0.4-0.2,0.5-0.4c0.1-0.2,0.2-0.3,0.4-0.3s0.6-0.1,0.7,0c0,0.1,0.1,0.3,0.2,0.3c0.1,0-0.2-0.3,0.2-0.3c0.4,0,1-0.1,1.1-0.1
		c0.1,0,0.4,0.3,0.6,0.4c0.2,0.1,0.1,0.3,0.8,0.2c0.6,0,0.9-0.6,0.9-0.6l-1.7-0.4l-1.9-0.8l-1.7-2.2l-1.3-1.4l-2.3-1.8l-1.9-0.6
		l-3.2,0.5l-1.9,0.7l-1.8,1.9l-1.1,1.9l-0.2,2L152.5,29.1z"/>
	<path class="st3" d="M128,27.9h-0.6l-0.6,0.7l-0.1,0.8c0,0,0.2,0.2,0.4,0.2c6.9,0,24.1-0.2,24.1-0.2l0.1-0.7l-0.2-0.3V28l-0.6-0.2
		l-7.3-0.3l-7.3-0.3l-7.1,0.6l-0.4,0.1V28L128,27.9z"/>
	<polygon class="st3" points="127.8,27.4 128,28.3 144.8,28.3 149.7,23.6 158,16 156.5,13 154.6,11.9 152.3,11 148.5,10.2 145,10 
		144.4,9.2 136.7,9.5 132.9,10.5 131.5,11.5 128.7,16 127.5,17.6 127.3,24 	"/>
	<polygon class="st3" points="169.8,24.3 170.3,24.3 171.1,24.4 172.2,24.5 173.2,24.9 172.8,25.5 171.6,25.9 170.2,25.7 
		169.9,25.3 	"/>
	
		<linearGradient id="SVGID_1_" gradientUnits="userSpaceOnUse" x1="100.9389" y1="15.3671" x2="100.9389" y2="16.4128" gradientTransform="matrix(1 0 0 -1 71.2733 44.4594)">
		<stop  offset="0.191" style="stop-color:#636362"/>
		<stop  offset="1" style="stop-color:#C6C6C5"/>
	</linearGradient>
	<path class="st4" d="M171.9,28c0,0,1,0,1.1,0c0.2,0,0.4,0.1,0.2,0.3c-0.1,0.3-0.4,0.8-0.4,0.8s-0.1,0-0.2,0c-0.1,0-0.9,0-0.9,0
		v-0.2l-0.4-0.1l-0.1-0.4L171.9,28z"/>
	
		<linearGradient id="SVGID_00000034769854107452926920000013197707581875910049_" gradientUnits="userSpaceOnUse" x1="99.9114" y1="17.2462" x2="99.9114" y2="15.674" gradientTransform="matrix(1 0 0 -1 71.2733 44.4594)">
		<stop  offset="5.617980e-03" style="stop-color:#991915"/>
		<stop  offset="0.137" style="stop-color:#B01314"/>
		<stop  offset="0.3083" style="stop-color:#C60D14"/>
		<stop  offset="0.4952" style="stop-color:#D60913"/>
		<stop  offset="0.7075" style="stop-color:#DF0713"/>
		<stop  offset="1" style="stop-color:#E20613"/>
	</linearGradient>
	<path style="fill:url(#SVGID_00000034769854107452926920000013197707581875910049_);stroke:#FFFFFF;stroke-width:0.2;" d="
		M171.8,27.2c0,0,0.2,1.1,0.1,1.3c-0.1,0.2-0.4,0.2-0.4,0.2l-1-1.3L171.8,27.2z"/>
	<polygon class="st3" points="110.5,24 108.1,24.7 107.9,25 108.5,25.2 109.8,25.8 110.1,25.7 	"/>
	<polygon class="st3" points="127.3,15.3 127.5,16.2 126.7,17.2 123.4,17.4 119.1,18 115.4,19.3 115.6,19.5 116.4,19.4 119.9,18.3 
		124.6,17.8 127,17.6 127.9,16.7 127.8,15.8 127.6,15.3 	"/>
	<path class="st3" d="M143,16.8c0,0,0,0-0.1,0C143,16.8,143,16.8,143,16.8z M143.5,16.7L143.5,16.7L143.5,16.7L143.5,16.7z
		 M143.1,10.4c-0.4,0-4,0-5.6,0.1c-1.6,0.2-3.2,0.5-4.3,0.9c-1.1,0.4-1.5,1.1-1.6,1.4c-0.2,0.3-1.1,1.9-1.3,2.1
		c-0.2,0.3-0.3,0.5-0.3,0.8s0.1,0.9,0.9,0.9c0.1,0,0.3,0,0.5,0c0-0.1,0-0.2,0-0.3c0-0.3,0.1-0.5,0.2-0.8c0.1-0.3,1-1.8,1.1-2.1
		c0.2-0.3,0.5-0.9,1.4-1.4c1-0.4,2.4-0.7,3.8-0.9c1.4,0.1,4.5,0.1,4.9,0.1c0.4,0,0.7,0.2,0.7,0.8v4.7c0,0,0,0,0,0.1
		c0.2-0.1,0.4-0.3,0.4-0.7v-4.9C143.9,10.6,143.5,10.4,143.1,10.4z M143.3,16.7c-0.1,0-0.2,0-0.2,0
		C143.2,16.8,143.2,16.8,143.3,16.7z"/>
	<path class="st3" d="M156.9,14.2c-0.4-0.5-1.1-1.6-4-2.7s-6.1-1.2-6.9-1.2c-0.6,0-1,0.4-1,0.9v4.7c0,0.6,0.4,0.8,0.9,0.8
		s7.9,0.2,9.4,0.2s1.8-0.8,1.9-1.2C157.4,15.4,157.3,14.7,156.9,14.2z M154.9,15.8c-0.1,0.3-0.4,0.8-1.7,0.8c-1.1,0-6.1-0.1-7.7-0.1
		c-0.2-0.1-0.3-0.5-0.3-0.5s0-1.5,0-2.3v-2.3c0.8,0,3.4,0.1,5.9,1c2.5,0.9,3.1,1.7,3.5,2.2C155,14.8,155.1,15.4,154.9,15.8z"/>
	
		<linearGradient id="SVGID_00000091707788932266274420000007663217734869119895_" gradientUnits="userSpaceOnUse" x1="88.335" y1="30.7672" x2="89.543" y2="31.9753" gradientTransform="matrix(1 0 0 -1 71.2733 44.4594)">
		<stop  offset="2.808990e-02" style="stop-color:#C6C6C5"/>
		<stop  offset="1" style="stop-color:#FFFFFF"/>
	</linearGradient>
	<path style="fill:url(#SVGID_00000091707788932266274420000007663217734869119895_);stroke:#1D1D1B;stroke-width:0.2;" d="
		M157.2,10.7c0,0.1-0.1,0.5,0.4,0.9c0.5,0.4,2.9,2.6,3.5,3.1c0.6,0.5,1.1,0.9,1.3,1c0.2,0,0.5,0.2,0.7,0c0.2-0.2,0.3-0.4,0.4-0.6
		c-0.9-0.9-2.4-2.1-3.4-2.8c-0.9-0.6-2.5-1.6-2.8-1.8C157.2,10.6,157.2,10.7,157.2,10.7z"/>
	<path class="st3" d="M163.3,15.1c-0.1,0.2-0.2,0.3-0.3,0.4c-0.1,0.1-0.3,0-0.5,0l0,0c-0.1,0-0.3-0.2-1.2-0.9l-1.7-1.4
		c-0.8-0.7-1.6-1.4-1.9-1.7c-0.2-0.1-0.4-0.4-0.4-0.6l0,0l0.1-0.2c-0.1-0.1-0.2-0.1-0.2-0.1c0,0.1,0,0.1,0,0.1
		c0,0.1-0.1,0.5,0.4,0.9c0.5,0.4,2.9,2.6,3.5,3.1c0.6,0.5,1.1,0.9,1.3,1c0.2,0,0.5,0.2,0.7,0c0.2-0.2,0.3-0.4,0.4-0.6l-0.1-0.1
		C163.3,15,163.3,15.1,163.3,15.1z"/>
	<g>
		
			<radialGradient id="SVGID_00000106829704000237513830000012502563729618847653_" cx="46.3167" cy="16.0617" r="5.4406" gradientTransform="matrix(1 0 0 -1 71.2733 44.4594)" gradientUnits="userSpaceOnUse">
			<stop  offset="0" style="stop-color:#FFFFFF"/>
			<stop  offset="1" style="stop-color:#000000"/>
		</radialGradient>
		<path style="fill:url(#SVGID_00000106829704000237513830000012502563729618847653_);" d="M112.2,28.4c0-3,2.4-5.4,5.4-5.4
			s5.4,2.4,5.4,5.4s-2.4,5.4-5.4,5.4C114.6,33.8,112.2,31.4,112.2,28.4z"/>
		
			<radialGradient id="SVGID_00000031925496567451959780000012731465555836370069_" cx="46.3167" cy="16.0617" r="4.5339" gradientTransform="matrix(1 0 0 -1 71.2733 44.4594)" gradientUnits="userSpaceOnUse">
			<stop  offset="0.8483" style="stop-color:#FFFFFF"/>
			<stop  offset="1" style="stop-color:#C6C6C5"/>
		</radialGradient>
		<path style="fill:url(#SVGID_00000031925496567451959780000012731465555836370069_);" d="M113.1,28.4c0-2.5,2-4.5,4.5-4.5
			s4.5,2,4.5,4.5s-2,4.5-4.5,4.5C115.1,32.9,113.1,30.9,113.1,28.4z"/>
		
			<radialGradient id="SVGID_00000159433551705682111830000005764184642888246972_" cx="46.3166" cy="16.0617" r="3.6564" gradientTransform="matrix(1 0 0 -1 71.2733 44.4594)" gradientUnits="userSpaceOnUse">
			<stop  offset="0.8146" style="stop-color:#636362"/>
			<stop  offset="1" style="stop-color:#C6C6C5"/>
		</radialGradient>
		<path style="fill:url(#SVGID_00000159433551705682111830000005764184642888246972_);" d="M114,28.4c0-2,1.6-3.7,3.7-3.7
			c2.1,0,3.7,1.6,3.7,3.7c0,2-1.6,3.7-3.7,3.7C115.6,32.1,114,30.4,114,28.4z"/>
		<path class="st3" d="M114.8,28.4c0-1.5,1.3-2.8,2.8-2.8s2.8,1.3,2.8,2.8s-1.3,2.8-2.8,2.8S114.8,29.9,114.8,28.4z"/>
		
			<radialGradient id="SVGID_00000112600766436298261010000010447228998932724885_" cx="46.3166" cy="16.0618" r="2.9396" gradientTransform="matrix(1 0 0 -1 71.2733 44.4594)" gradientUnits="userSpaceOnUse">
			<stop  offset="0.8202" style="stop-color:#939393"/>
			<stop  offset="1" style="stop-color:#636362"/>
		</radialGradient>
		<path style="fill:url(#SVGID_00000112600766436298261010000010447228998932724885_);" d="M117.6,25.4c-1.6,0-2.9,1.3-2.9,2.9
			s1.3,2.9,2.9,2.9s2.9-1.3,2.9-2.9C120.6,26.7,119.2,25.4,117.6,25.4z M115,27.7l0.1-0.4c0-0.1,0.1-0.2,0.2-0.2
			c0.1,0,0.1,0.1,0.1,0.3l-0.1,0.4c0,0.1-0.1,0.2-0.2,0.2C115,28,115,27.9,115,27.7z M115.6,29.9c-0.1,0-0.2,0-0.3-0.1l-0.2-0.4
			c-0.1-0.1,0-0.2,0-0.3c0.1,0,0.2,0,0.3,0.1l0.2,0.4C115.7,29.7,115.7,29.9,115.6,29.9z M116.1,26.3c0-0.1,0-0.2,0.1-0.3l0.4-0.2
			c0.1-0.1,0.2,0,0.3,0c0,0.1,0,0.2-0.1,0.3l-0.4,0.2C116.2,26.4,116.1,26.4,116.1,26.3z M117.3,30.9c0,0.1-0.1,0.1-0.3,0.1
			l-0.4-0.1c-0.1,0-0.2-0.1-0.2-0.2c0-0.1,0.1-0.1,0.3-0.1l0.4,0.1C117.2,30.7,117.3,30.8,117.3,30.9z M118,25.8
			c0-0.1,0.1-0.1,0.3-0.1l0.4,0.1c0.1,0,0.2,0.1,0.2,0.2c0,0.1-0.1,0.1-0.3,0.1l-0.4-0.1C118,26,117.9,25.9,118,25.8z M119,30.7
			l-0.4,0.2c-0.1,0.1-0.2,0-0.3,0c0-0.1,0-0.2,0.1-0.3l0.4-0.2c0.1-0.1,0.2,0,0.3,0C119.2,30.5,119.1,30.6,119,30.7z M119.6,27.1
			c-0.1-0.1,0-0.2,0-0.3c0.1,0,0.2,0,0.3,0.1l0.2,0.4c0.1,0.1,0,0.2,0,0.3c-0.1,0-0.2,0-0.3-0.1L119.6,27.1z M120.1,29.4
			c0,0.1-0.1,0.2-0.2,0.2s-0.1-0.1-0.1-0.3l0.1-0.4c0-0.1,0.1-0.2,0.2-0.2s0.1,0.1,0.1,0.3L120.1,29.4z"/>
		
			<linearGradient id="SVGID_00000044167081803440631730000013994689579570282158_" gradientUnits="userSpaceOnUse" x1="46.3474" y1="18.2117" x2="46.3474" y2="13.9117" gradientTransform="matrix(1 0 0 -1 71.2733 44.4594)">
			<stop  offset="5.617980e-03" style="stop-color:#F0F0F0"/>
			<stop  offset="0.5169" style="stop-color:#ADADAD"/>
			<stop  offset="1" style="stop-color:#DBDBDB"/>
		</linearGradient>
		<path style="fill:url(#SVGID_00000044167081803440631730000013994689579570282158_);" d="M115.5,28.4c0-1.2,1-2.1,2.1-2.1
			s2.2,1,2.2,2.1c0,1.2-1,2.2-2.2,2.2C116.4,30.6,115.5,29.6,115.5,28.4z"/>
	</g>
	<g>
		
			<radialGradient id="SVGID_00000089549694306405298190000012757024358638623638_" cx="87.9252" cy="15.7985" r="5.4406" gradientTransform="matrix(1 0 0 -1 71.2733 44.4594)" gradientUnits="userSpaceOnUse">
			<stop  offset="0" style="stop-color:#FFFFFF"/>
			<stop  offset="1" style="stop-color:#000000"/>
		</radialGradient>
		<path style="fill:url(#SVGID_00000089549694306405298190000012757024358638623638_);" d="M153.8,28.6c0-3,2.4-5.4,5.4-5.4
			s5.4,2.4,5.4,5.4s-2.4,5.4-5.4,5.4C156.2,34.1,153.8,31.6,153.8,28.6z"/>
		
			<radialGradient id="SVGID_00000181782720966933323420000009545155260902076036_" cx="87.9252" cy="15.7985" r="4.5339" gradientTransform="matrix(1 0 0 -1 71.2733 44.4594)" gradientUnits="userSpaceOnUse">
			<stop  offset="0.8483" style="stop-color:#FFFFFF"/>
			<stop  offset="1" style="stop-color:#C6C6C5"/>
		</radialGradient>
		<path style="fill:url(#SVGID_00000181782720966933323420000009545155260902076036_);" d="M154.7,28.6c0-2.5,2-4.5,4.5-4.5
			s4.5,2,4.5,4.5s-2,4.5-4.5,4.5C156.7,33.2,154.7,31.1,154.7,28.6z"/>
		
			<radialGradient id="SVGID_00000103963722955103138860000002527836913447117704_" cx="87.9252" cy="15.7984" r="3.6564" gradientTransform="matrix(1 0 0 -1 71.2733 44.4594)" gradientUnits="userSpaceOnUse">
			<stop  offset="0.8146" style="stop-color:#636362"/>
			<stop  offset="1" style="stop-color:#C6C6C5"/>
		</radialGradient>
		<path style="fill:url(#SVGID_00000103963722955103138860000002527836913447117704_);" d="M155.6,28.6c0-2,1.6-3.7,3.7-3.7
			c2,0,3.7,1.6,3.7,3.7c0,2-1.6,3.7-3.7,3.7C157.2,32.3,155.6,30.7,155.6,28.6z"/>
		<ellipse class="st3" cx="159.2" cy="28.6" rx="2.8" ry="2.8"/>
		
			<radialGradient id="SVGID_00000183219806298283792390000007070027120287814585_" cx="87.925" cy="15.7985" r="2.9396" gradientTransform="matrix(1 0 0 -1 71.2733 44.4594)" gradientUnits="userSpaceOnUse">
			<stop  offset="0.8202" style="stop-color:#939393"/>
			<stop  offset="1" style="stop-color:#636362"/>
		</radialGradient>
		<path style="fill:url(#SVGID_00000183219806298283792390000007070027120287814585_);" d="M159.2,25.7c-1.6,0-2.9,1.3-2.9,2.9
			c0,1.6,1.3,2.9,2.9,2.9c1.6,0,2.9-1.3,2.9-2.9C162.1,27,160.9,25.7,159.2,25.7z M156.6,28l0.1-0.4c0-0.1,0.1-0.2,0.2-0.2
			s0.1,0.1,0.1,0.3l-0.1,0.4c0,0.1-0.1,0.2-0.2,0.2C156.6,28.3,156.6,28.1,156.6,28z M157.2,30.2c-0.1,0-0.2,0-0.3-0.1l-0.2-0.4
			c-0.1-0.1,0-0.2,0-0.3c0.1,0,0.2,0,0.3,0.1l0.2,0.4C157.3,30,157.3,30.1,157.2,30.2z M157.7,26.6c0-0.1,0-0.2,0.1-0.3l0.4-0.2
			c0.1-0.1,0.2,0,0.3,0c0,0.1,0,0.2-0.1,0.3l-0.4,0.2C157.9,26.7,157.7,26.7,157.7,26.6z M158.9,31.2c0,0.1-0.1,0.1-0.3,0.1
			l-0.4-0.1c-0.1,0-0.2-0.1-0.2-0.2s0.1-0.1,0.3-0.1l0.4,0.1C158.8,31,158.9,31.1,158.9,31.2z M159.6,26.1c0-0.1,0.1-0.1,0.3-0.1
			l0.4,0.1c0.1,0,0.2,0.1,0.2,0.2c0,0.1-0.1,0.1-0.3,0.1l-0.4-0.1C159.6,26.3,159.6,26.2,159.6,26.1z M160.6,30.9l-0.4,0.2
			c-0.1,0.1-0.2,0-0.3,0c0-0.1,0-0.2,0.1-0.3l0.4-0.2c0.1-0.1,0.2,0,0.3,0C160.8,30.7,160.8,30.9,160.6,30.9z M161.2,27.4
			c-0.1-0.1,0-0.2,0-0.3c0.1,0,0.2,0,0.3,0.1l0.2,0.4c0.1,0.1,0,0.2,0,0.3c-0.1,0-0.2,0-0.3-0.1L161.2,27.4z M161.7,29.6
			c0,0.1-0.1,0.2-0.2,0.2c-0.1,0-0.1-0.1-0.1-0.3l0.1-0.4c0-0.1,0.1-0.2,0.2-0.2c0.1,0,0.1,0.1,0.1,0.3L161.7,29.6z"/>
		
			<linearGradient id="SVGID_00000006687930208661541270000015764373566502639539_" gradientUnits="userSpaceOnUse" x1="87.9474" y1="17.9483" x2="87.9474" y2="13.6487" gradientTransform="matrix(1 0 0 -1 71.2733 44.4594)">
			<stop  offset="5.617980e-03" style="stop-color:#F0F0F0"/>
			<stop  offset="0.5169" style="stop-color:#ADADAD"/>
			<stop  offset="1" style="stop-color:#DBDBDB"/>
		</linearGradient>
		<path style="fill:url(#SVGID_00000006687930208661541270000015764373566502639539_);" d="M157.1,28.6c0-1.2,1-2.1,2.1-2.1
			c1.2,0,2.2,1,2.2,2.1c0,1.2-1,2.1-2.2,2.1C158,30.8,157.1,29.8,157.1,28.6z"/>
	</g>
	
		<linearGradient id="SVGID_00000040566363807976535150000009054550497711585673_" gradientUnits="userSpaceOnUse" x1="39.4397" y1="20.976" x2="39.4397" y2="23.4887" gradientTransform="matrix(1 0 0 -1 71.2733 44.4594)">
		<stop  offset="0.191" style="stop-color:#636362"/>
		<stop  offset="1" style="stop-color:#C6C6C5"/>
	</linearGradient>
	<path style="fill:url(#SVGID_00000040566363807976535150000009054550497711585673_);" d="M110.2,23.4c0.1-0.1,0.1-0.3,0.3-0.4
		c0-0.5,0.5-1.7,0.8-2c0,0,0,0,0.1-0.1c-0.2,0.1-0.7,0.3-0.8,0.3c-0.2,0.1-0.3,0.4-0.3,0.6L110.2,23.4
		C110,23.4,110.1,23.5,110.2,23.4z"/>
	
		<linearGradient id="SVGID_00000169543340477218176150000002968215520134704033_" gradientUnits="userSpaceOnUse" x1="67.7974" y1="15.0526" x2="67.7974" y2="15.4621" gradientTransform="matrix(1 0 0 -1 71.2733 44.4594)">
		<stop  offset="0.191" style="stop-color:#636362"/>
		<stop  offset="1" style="stop-color:#C6C6C5"/>
	</linearGradient>
	<polygon style="fill:url(#SVGID_00000169543340477218176150000002968215520134704033_);" points="150.9,29.1 127.3,29.4 
		127.3,29.3 150.9,29 	"/>
	
		<linearGradient id="SVGID_00000151524451578564594980000010173889206938944391_" gradientUnits="userSpaceOnUse" x1="67.7974" y1="14.8772" x2="67.7974" y2="15.2281" gradientTransform="matrix(1 0 0 -1 71.2733 44.4594)">
		<stop  offset="0.191" style="stop-color:#636362"/>
		<stop  offset="1" style="stop-color:#C6C6C5"/>
	</linearGradient>
	<polygon style="fill:url(#SVGID_00000151524451578564594980000010173889206938944391_);" points="150.9,29.3 127.3,29.6 
		127.3,29.4 150.9,29.2 	"/>
	
		<linearGradient id="SVGID_00000078007350176857014450000012750561107067268764_" gradientUnits="userSpaceOnUse" x1="96.1189" y1="24.8297" x2="98.3637" y2="24.8297" gradientTransform="matrix(1 0 0 -1 71.2733 44.4594)">
		<stop  offset="5.617980e-03" style="stop-color:#991915"/>
		<stop  offset="0.137" style="stop-color:#B01314"/>
		<stop  offset="0.3083" style="stop-color:#C60D14"/>
		<stop  offset="0.4952" style="stop-color:#D60913"/>
		<stop  offset="0.7075" style="stop-color:#DF0713"/>
		<stop  offset="1" style="stop-color:#E20613"/>
	</linearGradient>
	<path style="fill:url(#SVGID_00000078007350176857014450000012750561107067268764_);stroke:#FFFFFF;stroke-width:0.2;" d="
		M167.4,19.1c0,0,0.8,0,1,0s0.6,0.1,0.8,0.2c0.1,0.1,0.5,0.5,0.5,0.5s-0.1,0.1-0.2,0.1c-0.8,0.1-1.4,0.2-1.4,0.2L167.4,19.1z"/>
	
		<linearGradient id="SVGID_00000133498041149734147880000009063140675593382273_" gradientUnits="userSpaceOnUse" x1="69.2872" y1="14.8408" x2="69.2872" y2="36.692" gradientTransform="matrix(1 0 0 -1 71.2733 44.4594)">
		<stop  offset="5.617980e-03" style="stop-color:#991915"/>
		<stop  offset="0.137" style="stop-color:#B01314"/>
		<stop  offset="0.3083" style="stop-color:#C60D14"/>
		<stop  offset="0.4952" style="stop-color:#D60913"/>
		<stop  offset="0.7075" style="stop-color:#DF0713"/>
		<stop  offset="1" style="stop-color:#E20613"/>
	</linearGradient>
	<path style="fill:url(#SVGID_00000133498041149734147880000009063140675593382273_);stroke:#FFFFFF;stroke-width:0.2;" d="
		M165.1,19.9c1.9,0.7,3.2,3.9,3.8,4.8c0.2,0.3,0.5,0.7,0.9,1.2l0.8-0.2c0,0-0.3-0.2-0.3-0.3s0.1-0.3,0-0.5c-0.1-0.2-0.7-1.4-1-2.2
		c-0.3-0.8-0.8-2.5-1.7-3.5l-0.1-0.1c-0.1-0.1-0.3-0.3-0.4-0.4c0,0.2-0.2,0.7-0.2,0.7c0,0.1-0.2,0.1-0.1-0.1c0,0,0-0.1,0.1-0.3
		c0-0.2,0.1-0.3,0.1-0.4l-0.1-0.1c0,0.2-0.2,0.7-0.2,0.8c0,0.1-0.2,0.1-0.1-0.1c0,0,0-0.1,0.1-0.3c0-0.2,0.1-0.3,0.1-0.4l-0.1-0.1
		c0,0.2-0.2,0.7-0.2,0.8c0,0.1-0.2,0.1-0.1-0.1c0,0,0-0.1,0.1-0.3c0-0.2,0.1-0.4,0.1-0.5l-0.1-0.1c0,0.2-0.2,0.7-0.2,0.8
		s-0.2,0.1-0.1-0.1c0,0,0-0.1,0.1-0.3c0-0.2,0.1-0.4,0.1-0.5l-0.1-0.1c0,0.2-0.2,0.7-0.2,0.8c0,0.1-0.2,0.1-0.1-0.1
		c0,0,0-0.1,0.1-0.3c0-0.2,0.1-0.4,0.1-0.5l-0.1-0.1c0,0.2-0.2,0.7-0.2,0.8s-0.2,0.1-0.1-0.1c0,0,0-0.1,0.1-0.3
		c0-0.2,0.1-0.4,0.1-0.5l-0.1-0.1c0,0.2-0.2,0.7-0.2,0.8c0,0.1-0.2,0.1-0.1-0.1c0,0,0-0.1,0.1-0.3c0-0.2,0.1-0.4,0.1-0.5
		c-0.4-0.4-0.8-0.7-1-0.9c0,0,0,0.6-0.2,0.9c-0.2,0.3-0.4,0.6-0.4,0.8c-0.1,0.1-0.2,0.5,0.3,1.5C164.6,19.7,164.8,19.8,165.1,19.9z
		 M112,20.4c-0.4,0.2-0.5,0.3-0.8,0.6s-0.8,1.6-0.8,2.1s-0.3,1.9-0.5,2.3s-0.6,1.9-0.7,2.1c-0.1,0.3,0.2,0.4,0.2,0.4
		c0.1,0,0.2,0.1,0.2-0.2c0-0.3,0.5-0.7,1-1.4c1.9-2.8,3.7-5,6.5-5c2.8,0,4.6,2.2,5.4,3.4c0.7,1.3,1.2,3.7,1.3,4.1
		c0.1,0.4,0.7,0.6,0.7,0.6s0.9,0,2.1,0c0-0.8,0.3-1,0.7-1.3c0.1,0,0.1,0,0.1-0.2c-1.1-5.7-5.1-8.7-9.4-8.7
		C115,19.2,112.4,20.2,112,20.4z M115.6,19.4c1.5-0.8,3.7-1.3,5.1-1.5c1.6-0.3,3.4-0.5,6-0.5c0.3-0.2,0.6-0.6,0.8-0.9
		c0.2-0.3,0-0.7-0.2-1.2c0,0-1.4,0.1-2.5,0.2c-4.3,0.4-6.5,1-8.4,1.8c-1.9,0.8-3.3,2-3.8,2.4c-0.3,0.3-0.4,0.5-0.5,0.6
		C112.7,20.1,114,19.6,115.6,19.4z M144.4,9.9l-0.1,18.3l-16-0.2l-0.1-10.5c0,0,1.3-2,1.8-3s1.4-2.5,2-2.9c0.5-0.4,1.6-1.2,4-1.5
		c2.4-0.3,5.2-0.3,6.1-0.3C142.9,9.9,144.4,9.9,144.4,9.9z M143.9,11.2c0-0.6-0.4-0.8-0.8-0.8s-4,0-5.6,0.1
		c-1.6,0.2-3.2,0.5-4.3,0.9c-1.1,0.4-1.5,1.1-1.6,1.4c-0.2,0.3-1.1,1.9-1.3,2.1c-0.2,0.3-0.3,0.5-0.3,0.8s0.1,0.9,0.9,0.9
		s12.1,0.1,12.1,0.1s0.9,0,0.9-0.8C143.9,15.9,143.9,11.2,143.9,11.2z M164.1,17.8c0.5-0.7,0.4-0.8,0.6-1.4c0,0-1-1.1-1.2-1.4
		c-0.1,0.3-0.2,0.5-0.5,0.7c-0.2,0.2-0.5,0.1-0.7,0c-0.2,0-0.7-0.5-1.3-1c-0.6-0.5-3-2.7-3.5-3.1c-0.5-0.4-0.4-0.8-0.4-0.9
		c0-0.1,0.1-0.2-0.1-0.3c-4.4-2.4-10-2.8-14.2-2.7c-4.2,0.1-6.6,0.4-10.1,1.5c-0.2,0.1-0.3,0.1-0.5,0.5c-0.2,0.4-1.7,2.8-1.9,3.3
		c-0.2,0.4-1.2,2-1.5,2.4l0,0l0.4,0.2c0.4-0.6,1.5-2.5,1.9-3.2c0.5-0.8,1.6-1.9,4.1-2.4c2.6-0.5,7.2-0.4,9.3-0.4
		c2.2,0,4.4,0.1,7.8,1c3.3,0.9,6.4,3.3,7.3,4.1c0.9,0.8,3,2.7,4.7,4.8C164.1,19.3,163.7,18.5,164.1,17.8z M168.9,24.7
		c-0.6-0.8-2-4-3.8-4.8c-0.3-0.1-0.6-0.2-0.8-0.3l0,0c-0.3-0.1-1.9-0.6-3.2-0.7c-2.4-0.1-4.6,0.2-6,1.3c-1.4,1-3.6,2.9-4,8l0,0
		c0,0.1,0,0.3,0.1,0.4c0.1,0.1,0.3,0.5,0,0.8c-0.1,0.1,0,0.1,0,0.1c0.4,0,0.7,0.2,1.2,0c0.5-0.2,0.6-0.9,0.7-1.4
		c0.1-0.5,0.4-2,0.8-2.8c0.4-0.8,2.2-3.3,5.7-3.3c3.9,0,5.3,2.7,6.2,4.2c0.9,1.6,2.4,2.7,5.6,2.6c0.6,0,0.6,0,0.6,0
		C171.1,27.6,169.6,25.5,168.9,24.7z M164.3,19.6c-0.3-0.1-1.9-0.6-3.2-0.7c-2.4-0.1-4.6,0.2-6,1.3c-1.4,1-3.6,2.9-4,8
		c-1.1,0-6.6,0-6.6,0l0.1-18.5c2.2,0,4.4,0.1,7.7,1c3.3,0.9,6.4,3.3,7.3,4.1c0.9,0.8,2.9,2.7,4.6,4.7
		C164.2,19.5,164.3,19.6,164.3,19.6z M156.9,14.2c-0.4-0.5-1.1-1.6-4-2.7s-6.1-1.2-6.9-1.2c-0.6,0-1,0.4-1,0.9v4.7
		c0,0.6,0.4,0.8,0.9,0.8s7.9,0.2,9.4,0.2s1.8-0.8,1.9-1.2C157.4,15.4,157.3,14.7,156.9,14.2z M129.2,15.8l-0.4-0.3
		c0,0-0.3-0.1-0.6-0.3c0,0-0.3,0-0.7,0.1c0.2,0.3,0.3,0.8,0.3,1c0,0.2-0.4,0.7-0.9,1.2c-0.3,0-2.9,0.1-5.7,0.5
		c-2.3,0.3-4.2,1.1-4.9,1.3c0.5-0.1,1.1-0.1,1.7-0.1c4.3,0,8.3,3.1,9.6,8.9h0.5c0,0-0.1-7.3-0.1-10.6
		C128,17.5,128.8,16.3,129.2,15.8z"/>
	
		<radialGradient id="SVGID_00000131351039085895793060000004625667122906233494_" cx="46.3167" cy="16.0617" r="1.2151" gradientTransform="matrix(1 0 0 -1 71.2733 44.4594)" gradientUnits="userSpaceOnUse">
		<stop  offset="5.617980e-03" style="stop-color:#595959"/>
		<stop  offset="1" style="stop-color:#969696"/>
	</radialGradient>
	<path style="fill:url(#SVGID_00000131351039085895793060000004625667122906233494_);stroke:#868686;stroke-width:0.4;" d="
		M116.4,28.4c0-0.7,0.5-1.2,1.2-1.2c0.7,0,1.2,0.5,1.2,1.2c0,0.7-0.5,1.2-1.2,1.2C116.9,29.6,116.4,29,116.4,28.4z"/>
	
		<radialGradient id="SVGID_00000079478784936148855950000017664582423017006483_" cx="87.925" cy="15.7985" r="1.2152" gradientTransform="matrix(1 0 0 -1 71.2733 44.4594)" gradientUnits="userSpaceOnUse">
		<stop  offset="5.617980e-03" style="stop-color:#595959"/>
		<stop  offset="1" style="stop-color:#969696"/>
	</radialGradient>
	<path style="fill:url(#SVGID_00000079478784936148855950000017664582423017006483_);stroke:#868686;stroke-width:0.4;" d="
		M158,28.6c0-0.7,0.5-1.2,1.2-1.2s1.2,0.5,1.2,1.2c0,0.7-0.5,1.2-1.2,1.2C158.6,29.8,158,29.3,158,28.6z"/>
	<path class="st24" d="M132.1,15.4c0.2,0.4,0.5,0.8,0.5,0.9c0.4,0.1,1.2,0.1,1.2,0.1c0.2-1.3,0.7-3.9,0.8-4.4
		c-0.2,0.1-0.3,0.2-0.4,0.2c-1,0.4-1.3,1.1-1.4,1.4c-0.1,0.2-0.5,0.9-0.8,1.5C132,15.2,132,15.3,132.1,15.4z"/>
	<path class="st24" d="M135,11.9l-0.9,4.5h0.5l0.8-4.7C135.3,11.8,135.1,11.9,135,11.9z"/>
	<path class="st24" d="M142.8,11.2c-0.4,0-3.5,0-4.9,0.1c-0.7,0.1-1.4,0.2-2.1,0.3l-0.9,4.8l3.3,0.1h2.7c0.4-0.6,0.8-1.2,1.6-1.2
		c0.2-0.5,0.3-0.8,0.3-0.8c-0.7-0.1-1-0.3-1.2-0.6c-0.2-0.3-0.2-0.6-0.2-0.8s0-0.9,0.3-1.2c0.2-0.3,0.7-0.4,1-0.4
		c0.4,0,0.5,0.3,0.7,0.6v-0.3C143.5,11.4,143.2,11.2,142.8,11.2z"/>
	<path class="st24" d="M143.5,14.7h-0.3c-0.2,0.7-0.2,0.8-0.2,0.8c0.2,0.1,0.4,0.1,0.5,0.2V14.7z"/>
	<path class="st24" d="M154.7,14.4c-0.3-0.4-1-1.3-3.5-2.2c-2.5-0.9-5.1-1-5.9-1v2.3c0,0.9,0,2.3,0,2.3s0,0.4,0.3,0.5
		c1.6,0,6.6,0.2,7.7,0.1c1.3,0,1.5-0.5,1.7-0.8C155.1,15.4,155,14.8,154.7,14.4z"/>
	
		<linearGradient id="SVGID_00000108996919843007867950000002066897615254815402_" gradientUnits="userSpaceOnUse" x1="52.7974" y1="28.7665" x2="52.7974" y2="29.0745" gradientTransform="matrix(1 0 0 -1 71.2733 44.4594)">
		<stop  offset="5.617980e-03" style="stop-color:#991915"/>
		<stop  offset="0.137" style="stop-color:#B01314"/>
		<stop  offset="0.3083" style="stop-color:#C60D14"/>
		<stop  offset="0.4952" style="stop-color:#D60913"/>
		<stop  offset="0.7075" style="stop-color:#DF0713"/>
		<stop  offset="1" style="stop-color:#E20613"/>
	</linearGradient>
	<path style="fill:url(#SVGID_00000108996919843007867950000002066897615254815402_);stroke:#FFFFFF;stroke-width:0.2;" d="
		M123.4,15.7l0.1-0.2h1c0,0,0-0.1,0.1-0.1s0.2,0,0.2,0s0,0,0,0.1C124.8,15.6,123.4,15.7,123.4,15.7z"/>
	<path class="st3" d="M129.2,14.2c-0.1,0.1-0.2,0-0.3,0c-0.1,0-0.3,0-0.5,0.4c-0.1,0.3-0.2,0.5-0.2,0.6c0.2,0.1,0.4,0.2,0.5,0.2l0,0
		c0-0.1-0.2-0.5-0.2-0.6c0-0.2,0.1-0.4,0.3-0.4c0.2,0,0.1,0.1,0.1,0.2c0,0.1-0.1,0.4-0.1,0.6c0.2-0.3,0.4-0.7,0.7-1.1
		C129.5,14.2,129.3,14.2,129.2,14.2z"/>
	
		<radialGradient id="SVGID_00000044883851068529451450000014601239526629242812_" cx="70.8503" cy="25.813" r="0.7698" gradientTransform="matrix(1 0 0 -1 71.2733 44.4594)" gradientUnits="userSpaceOnUse">
		<stop  offset="5.617980e-03" style="stop-color:#991915"/>
		<stop  offset="0.137" style="stop-color:#B01314"/>
		<stop  offset="0.3083" style="stop-color:#C60D14"/>
		<stop  offset="0.4952" style="stop-color:#D60913"/>
		<stop  offset="0.7075" style="stop-color:#DF0713"/>
		<stop  offset="1" style="stop-color:#E20613"/>
	</radialGradient>
	<path style="fill:url(#SVGID_00000044883851068529451450000014601239526629242812_);stroke:#FFFFFF;stroke-width:0.2;" d="
		M141.3,18.6c0-0.4,0.4-0.7,0.8-0.7c0.5,0,0.8,0.3,0.8,0.7s-0.4,0.7-0.8,0.7S141.3,19,141.3,18.6z"/>
	
		<linearGradient id="SVGID_00000130607775333381135550000000211387053172558987_" gradientUnits="userSpaceOnUse" x1="71.0752" y1="25.5918" x2="71.0752" y2="26.1162" gradientTransform="matrix(1 0 0 -1 71.2733 44.4594)">
		<stop  offset="0.191" style="stop-color:#636362"/>
		<stop  offset="1" style="stop-color:#C6C6C5"/>
	</linearGradient>
	<path style="fill:url(#SVGID_00000130607775333381135550000000211387053172558987_);stroke:#FFFFFF;stroke-width:0.2;" d="
		M140.8,18.5c0,0,0.4-0.1,1.3-0.2c0.9,0,1.5-0.1,1.8-0.1c0.1,0,0.1,0,0.1,0.1c0,0.1,0,0.3,0,0.3c0,0.1,0,0.1-0.1,0.1
		c-0.1,0-1.5-0.1-2.1-0.1c-0.6,0-0.9,0-1,0C140.8,18.7,140.7,18.6,140.8,18.5z"/>
	<circle class="st28" cx="143.5" cy="18.6" r="0.2"/>
	
		<linearGradient id="SVGID_00000145057116110241512640000009740491613342803369_" gradientUnits="userSpaceOnUse" x1="58.0974" y1="28.2663" x2="58.0974" y2="29.6778" gradientTransform="matrix(1 0 0 -1 71.2733 44.4594)">
		<stop  offset="0.191" style="stop-color:#636362"/>
		<stop  offset="1" style="stop-color:#C6C6C5"/>
	</linearGradient>
	<path style="fill:url(#SVGID_00000145057116110241512640000009740491613342803369_);stroke:#636362;stroke-width:0.4;" d="
		M128.9,15.5l0.1,0.1c0,0,0.2,0,0.3,0c0.1,0,0,0.1,0,0.1s0.1,0.1,0.1,0.2c0.1,0.1,0.2,0.2,0.3,0.3c0.1-0.2,0.2-0.4,0.2-0.7
		s0-0.6,0-0.7c-0.1,0-0.4,0.3-0.5,0.4c-0.1,0.2-0.1,0.3-0.2,0.3C129.2,15.5,128.9,15.5,128.9,15.5z"/>
	
		<linearGradient id="SVGID_00000009569973173697479130000014736341983158117777_" gradientUnits="userSpaceOnUse" x1="100.3252" y1="16.8513" x2="100.3252" y2="20.314" gradientTransform="matrix(1 0 0 -1 71.2733 44.4594)">
		<stop  offset="0.191" style="stop-color:#636362"/>
		<stop  offset="1" style="stop-color:#C6C6C5"/>
	</linearGradient>
	<path style="fill:url(#SVGID_00000009569973173697479130000014736341983158117777_);stroke:#FFFFFF;stroke-width:0.2;" d="
		M169.9,24.1c0.2,0,0.8,0.1,1.3,0.1c0.6,0.1,1.3,0.1,2,0.4s0.8,0.4,0.8,0.6c0,0.3-0.1,0.8-0.1,1.2c0,0.1,0.1,0.3,0,0.4
		c-0.1,0.2-0.3,0.4-0.6,0.4c-0.3,0.1-1.9,0.3-2.8,0.3c-0.4,0-0.6,0-0.7-0.2c-0.1-0.2-0.4-1-0.5-1.2c-0.1-0.2,0-0.2,0-0.3
		s0.1-0.2,0.5-0.3c0.4-0.1,1.3-0.1,2-0.3c0.6-0.1,1-0.2,1-0.4c0-0.2-0.7-0.3-1.2-0.4c-0.4,0-1.5-0.1-1.7-0.2
		C170,24.3,169.9,24.2,169.9,24.1z"/>
	
		<linearGradient id="SVGID_00000034801304695932854960000002311582548271883665_" gradientUnits="userSpaceOnUse" x1="37.3974" y1="17.3479" x2="37.3974" y2="20.3867" gradientTransform="matrix(1 0 0 -1 71.2733 44.4594)">
		<stop  offset="0.191" style="stop-color:#636362"/>
		<stop  offset="1" style="stop-color:#C6C6C5"/>
	</linearGradient>
	<path style="fill:url(#SVGID_00000034801304695932854960000002311582548271883665_);stroke:#FFFFFF;stroke-width:0.2;" d="
		M110.3,24.2c-0.2,0.1-0.8,0.2-1.1,0.3c-0.4,0.1-1.1,0.2-1.1,0.4c0,0.2,0.3,0.1,0.4,0.1s1.1,0.1,1.2,0.3c0.1,0.2,0.1,0.3,0.2,0.5
		c0.1,0.2,0.1,0.9,0.1,1.1c0,0.2-0.1,0.3-0.7,0.3s-1.4,0-1.7-0.1c-0.3-0.1-0.3-0.6-0.4-0.8c0-0.2-0.1-0.8-0.1-0.9
		c0-0.1,0.2-0.3,0.5-0.3c0.2-0.1,0.5-0.3,2.7-0.8C110.3,24.1,110.3,24.1,110.3,24.2z"/>
	
		<linearGradient id="SVGID_00000142876654126772617830000009582059968649201283_" gradientUnits="userSpaceOnUse" x1="72.3303" y1="26.003" x2="72.3303" y2="27.133" gradientTransform="matrix(1 0 0 -1 71.2733 44.4594)">
		<stop  offset="0.191" style="stop-color:#636362"/>
		<stop  offset="1" style="stop-color:#C6C6C5"/>
	</linearGradient>
	<path style="fill:url(#SVGID_00000142876654126772617830000009582059968649201283_);stroke:#636362;stroke-width:0.4;" d="
		M151.7,17.7c-1.6-0.1-5.5-0.1-7.2-0.1v-0.3c0.7,0,5.1,0,7.2,0.1c2.3,0.1,6,0.6,7.2,0.8c0.1,0,0.1,0.2-0.1,0.2
		C155.2,17.8,153.3,17.8,151.7,17.7z M144.4,17.3c-9.5,0-16.1,0.2-16.1,0.2v0.2c0,0,13.2-0.2,16.1-0.2V17.3z"/>
	<path class="st33" d="M168.5,24c0.1-0.1,0.1-0.3,0.1-0.5c0-0.4,0-1.7,0-1.7c0-0.3-0.2-0.7-0.3-0.9c-0.1-0.1-0.2-0.2-0.4-0.3
		c-0.2,0-0.6-0.1-1.1-0.1c-0.3,0-0.6,0-0.8,0C167.1,21.4,168,23,168.5,24z"/>
	<path class="st34" d="M168.1,23.3c0.2,0,0.4,0,0.5,0c0-0.5,0-1.5,0-1.5v-0.1c-0.2,0-0.7,0-1.5,0C167.5,22.2,167.8,22.8,168.1,23.3z
		"/>
	<path class="st35" d="M167.1,21.7c0.8,0,1.3,0,1.5,0c0-0.3-0.2-0.7-0.3-0.8c-0.1-0.1-0.2-0.2-0.4-0.3c-0.2,0-0.6-0.1-1.1-0.1
		c-0.3,0-0.6,0-0.8,0C166.5,20.9,166.8,21.3,167.1,21.7z"/>
</g>
<g>
	<path class="st1" d="M174,29.1l0.3-0.6c5.5,0.9,9,2.4,26.2,2c13.7-0.3,15-1,16.7-1.4c1.7-0.5,2.3-1.2,2.6-1.9
		c0.4-0.9,0.5-1.8-1-2.8l-0.2-0.1l-1-0.5c-1.2-0.7-2.1-1.3-2.6-1.9c-0.5-0.6-0.7-1.3-0.7-2.1c0-1.4,0.5-2.5,1.5-3.3
		c1-0.8,2.4-1.2,4.3-1.2c0.4,0,0.8,0,1.3,0.1c0.5,0,1,0.1,1.7,0.2l0.6,3.9c-1-0.1-3.6-0.6-4.1-0.3s-1.1,1.3,0.3,2.1l1.2,0.7
		c1.3,0.8,2.2,1.5,2.6,2.1c0.4,0.6,0.6,1.3,0.6,2.2c0,1.4-0.5,2.7-1.6,3.3c-2.5,1.5-6.4,2-22.5,2C180.2,31.5,174.7,29.3,174,29.1z"
		/>
</g>
<g>
	<path d="M221.3,24.8c-0.1,0-0.1,0-0.2-0.1c-0.2-0.2-0.4-0.4-0.5-0.5c-0.1-0.1-0.2-0.2-0.3-0.3c-0.2-0.2-0.8-0.6-1.3-1l0.1-0.2
		l0.1-0.2l-0.1,0.2l0.2-0.2c0.6,0.4,1.1,0.8,1.4,1c0.1,0.1,0.2,0.2,0.3,0.3c0.2,0.2,0.4,0.3,0.5,0.5c0.1,0.1,0.1,0.3,0,0.4
		C221.4,24.8,221.4,24.8,221.3,24.8z M216.9,21.1c-0.1,0-0.2,0-0.2-0.1c-0.2-0.4-0.3-0.8-0.3-1.2c0-0.3,0.1-0.7,0.2-1.1
		c0.1-0.3,0.2-0.5,0.3-0.7c0.1-0.1,0.2-0.2,0.3-0.1c0.1,0.1,0.2,0.2,0.1,0.3c-0.1,0.2-0.2,0.4-0.3,0.6c-0.1,0.4-0.2,0.7-0.2,1
		c0,0.3,0.1,0.6,0.3,0.9c0.1,0.1,0,0.3-0.1,0.3C217,21.1,217,21.1,216.9,21.1z M222.5,17.1C222.4,17.1,222.4,17.1,222.5,17.1
		c-1-0.1-1.8-0.2-2.4-0.1c-0.2,0-0.4,0-0.5,0c-0.1,0-0.3-0.1-0.3-0.2c0-0.1,0.1-0.3,0.2-0.3c0.2,0,0.3,0,0.5,0c0.6,0,1.4,0,2.4,0.1
		c0.1,0,0.2,0.1,0.2,0.3C222.7,17,222.6,17.1,222.5,17.1z"/>
	<path d="M221.1,28.7c-0.1,0-0.1,0-0.2-0.1c-0.1-0.1-0.1-0.2,0-0.4c0.3-0.3,0.6-0.8,0.8-1.2c0.1-0.1,0.2-0.2,0.3-0.1
		c0.1,0.1,0.2,0.2,0.1,0.3c-0.2,0.5-0.5,1-0.8,1.3C221.3,28.7,221.2,28.7,221.1,28.7z"/>
</g>
</svg>
