<?xml version="1.0" encoding="utf-8"?>
<!-- Generator: Adobe Illustrator 25.4.1, SVG Export Plug-In . SVG Version: 6.00 Build 0)  -->
<svg version="1.1" id="Capa_1" xmlns="http://www.w3.org/2000/svg" xmlns:xlink="http://www.w3.org/1999/xlink" x="0px" y="0px"
	 viewBox="0 0 20 20" style="enable-background:new 0 0 20 20;" xml:space="preserve">
<style type="text/css">
	.st0{fill:#FFFFFF;}
</style>
<path class="st0" d="M10,0.1c-5.4,0-9.9,4.4-9.9,9.9s4.4,9.9,9.9,9.9s9.9-4.4,9.9-9.9C19.8,4.6,15.4,0.1,10,0.1z M10,18.7
	c-4.8,0-8.7-3.9-8.7-8.7S5.2,1.3,10,1.3s8.7,3.9,8.7,8.7S14.8,18.7,10,18.7z"/>
<path class="st0" d="M7.2,16.7C4.6,15.6,2.8,13,2.8,10c0-0.8,0.1-1.5,0.3-2.2L7.2,16.7z M12,17c-0.6,0.2-1.3,0.3-2,0.3
	S8.6,17.2,8,17l2-4.7L12,17z M16.9,7.8c0.2,0.7,0.3,1.4,0.3,2.2c0,3-1.8,5.6-4.4,6.7L16.9,7.8z"/>
<path class="st0" d="M13.6,3.8c0.9,0.5,1.6,1.2,2.2,2l-3.6,7.7L11,10.6H8.9l-1.2,2.9L4.1,5.8c0.6-0.8,1.4-1.5,2.2-2l2.5,5.9H11
	C11.1,9.7,13.6,3.8,13.6,3.8z"/>
<path class="st0" d="M10,2.8c0.7,0,1.4,0.1,2,0.3L10,8L8,3.1C8.6,2.9,9.3,2.8,10,2.8z"/>
</svg>
